#!OML:ASF F:\twosubjects\two\wednesday\Session 1\rory1.ASF
:FULLY-SPECIFIED
:DEGREES
114
root 15.8997 18.4691 1.93108 -0.0968885 2.98923 -5.1275
lowerback 3.27563 0.389092 6.60755
upperback 0.99317 0.767362 3.25795
thorax -0.772206 0.380994 -0.376193
lowerneck -8.71867 -3.27082 -5.52187
upperneck 12.4691 -3.59187 -0.335682
head 5.29031 -2.03446 0.536785
rclavicle 6.55989e-015 -1.03368e-014
rhumerus -61.6221 -41.7775 -40.6138
rradius 10.7496
rwrist 36.9182
rhand -14.5562 28.4782
rfingers 7.12502
rthumb 11.5927 -1.18113
lclavicle 6.55989e-015 -1.03368e-014
lhumerus 35.5852 -3.10858 74.5497
lradius 36.1596
lwrist 28.4826
lhand -20.635 18.2726
lfingers 7.12502
lthumb 5.72673 48.1752
rfemur 18.3215 5.33976 31.5739
rtibia -3.18055e-014
rfoot -5.51064 -3.44314
rtoes -1.70788
lfemur -47.0609 -4.53841 -7.49935
ltibia 20.9851
lfoot -8.66369 11.0236
ltoes -18.345
115
root 15.928 18.4534 2.09519 -0.0465777 2.58877 -5.21942
lowerback 3.28042 0.457652 6.65755
upperback 0.952302 0.863034 3.25934
thorax -0.81109 0.42686 -0.40628
lowerneck -8.74849 -3.23982 -5.5712
upperneck 12.524 -3.5466 -0.290577
head 5.31309 -2.01258 0.561214
rclavicle -8.24956e-015 -1.03368e-014
rhumerus -60.6743 -41.9552 -41.388
rradius 10.6301
rwrist 36.3524
rhand -14.8449 28.1467
rfingers 7.12502
rthumb 11.3143 -1.52809
lclavicle -8.24956e-015 -1.03368e-014
lhumerus 35.5069 -3.34531 74.0245
lradius 36.6615
lwrist 29.1899
lhand -20.4168 18.4662
lfingers 7.12502
lthumb 5.93739 48.363
rfemur 18.8301 5.45503 31.6094
rtibia 2.54444e-014
rfoot -5.50693 -3.15853
rtoes -3.5069
lfemur -46.7617 -4.35457 -7.49056
ltibia 21.1468
lfoot -8.48351 11.1258
ltoes -17.4595
116
root 15.9519 18.4377 2.27001 -0.0791649 2.17617 -5.39221
lowerback 3.07307 0.516857 6.71504
upperback 1.02676 0.918473 3.27624
thorax -0.614027 0.460621 -0.419779
lowerneck -8.79401 -3.14096 -5.42864
upperneck 12.6675 -3.41991 -0.354364
head 5.35822 -1.95075 0.526106
rclavicle -2.93207e-015 2.70347e-014
rhumerus -62.0072 -43.988 -38.7456
rradius 10.4742
rwrist 39.1299
rhand -14.8205 28.263
rfingers 7.12502
rthumb 11.3378 -1.41057
lclavicle -2.93207e-015 2.70347e-014
lhumerus 35.4492 -3.35312 73.688
lradius 36.8491
lwrist 29.2576
lhand -20.49 18.4459
lfingers 7.12502
lthumb 5.8668 48.3447
rfemur 19.5301 5.55622 31.7762
rtibia -1.59028e-014
rfoot -5.57216 -2.95045
rtoes -5.52999
lfemur -46.3157 -4.02896 -7.52037
ltibia 21.4121
lfoot -8.18103 10.8874
ltoes -15.7042
117
root 15.9725 18.4258 2.44983 0.0498654 1.80821 -5.21279
lowerback 2.75224 0.64485 6.46173
upperback 1.00435 1.05143 3.15517
thorax -0.452305 0.530393 -0.404193
lowerneck -8.9181 -3.11869 -5.51641
upperneck 13.0192 -3.3967 -0.128474
head 5.49383 -1.93366 0.608077
rclavicle 1.63997e-015 -4.6118e-014
rhumerus -63.0202 -45.4103 -37.0224
rradius 10.4863
rwrist 40.6161
rhand -14.8666 28.793
rfingers 7.12502
rthumb 11.2934 -0.882939
lclavicle 1.63997e-015 -4.6118e-014
lhumerus 35.1907 -3.57999 73.4859
lradius 37.0534
lwrist 29.2368
lhand -20.6822 18.1155
lfingers 7.12502
lthumb 5.68122 48.0194
rfemur 20.0402 5.66676 31.4788
rtibia -5.725e-014
rfoot -5.52871 -2.55207
rtoes -6.0256
lfemur -46.0673 -3.67539 -8.02621
ltibia 21.7893
lfoot -7.40232 10.6048
ltoes -17.1015
118
root 15.9942 18.4109 2.62924 0.0628485 1.43405 -5.12223
lowerback 2.67306 0.776319 6.32896
upperback 0.938871 1.21868 3.03609
thorax -0.466711 0.612291 -0.457166
lowerneck -9.19911 -3.17359 -5.57951
upperneck 13.5006 -3.46829 0.0743898
head 5.69902 -1.96444 0.668544
rclavicle 2.41026e-015 -1.19271e-014
rhumerus -61.2042 -44.8087 -39.5937
rradius 10.8035
rwrist 38.4099
rhand -14.9435 29.1289
rfingers 7.12502
rthumb 11.2192 -0.55107
lclavicle 2.41026e-015 -1.19271e-014
lhumerus 34.8711 -3.97783 73.3046
lradius 37.3455
lwrist 29.2351
lhand -20.7387 18.3622
lfingers 7.12502
lthumb 5.62667 48.2675
rfemur 20.6281 5.76798 31.2547
rtibia -6.36111e-015
rfoot -5.35524 -2.10201
rtoes -4.78851
lfemur -45.6564 -3.4291 -8.34616
ltibia 22.162
lfoot -7.13716 10.1759
ltoes -18.2758
119
root 16.0225 18.3893 2.80519 0.129836 0.960565 -5.38422
lowerback 2.49547 0.918815 6.582
upperback 0.879731 1.40134 3.01272
thorax -0.411251 0.703899 -0.623447
lowerneck -9.25289 -3.22121 -5.44994
upperneck 13.725 -3.55081 0.0959629
head 5.7786 -1.99974 0.645461
rclavicle -1.07095e-014 -1.27222e-014
rhumerus -59.2938 -44.2691 -42.1996
rradius 11.1648
rwrist 36.3257
rhand -15.005 28.8251
rfingers 7.12502
rthumb 11.16 -0.858156
lclavicle -1.07095e-014 -1.27222e-014
lhumerus 34.4867 -4.09062 73.4678
lradius 37.5498
lwrist 28.8356
lhand -20.8336 18.3926
lfingers 7.12502
lthumb 5.53503 48.3003
rfemur 21.1534 5.96377 31.4449
rtibia 6.36111e-014
rfoot -5.0922 -1.81603
rtoes -3.29839
lfemur -45.2184 -3.2199 -8.1336
ltibia 22.5214
lfoot -7.16649 9.69132
ltoes -16.5593
120
root 16.0456 18.3606 2.98612 0.320367 0.403295 -5.69235
lowerback 2.23211 1.11433 6.8265
upperback 0.723859 1.65152 2.99095
thorax -0.401875 0.826179 -0.783068
lowerneck -8.72801 -3.19982 -5.3297
upperneck 13.5127 -3.58909 0.194533
head 5.62222 -2.00315 0.663937
rclavicle -1.18774e-014 -3.97569e-015
rhumerus -58.2335 -44.2194 -43.6342
rradius 11.1869
rwrist 34.4949
rhand -15.7333 29.547
rfingers 7.12502
rthumb 10.4575 -0.172858
lclavicle -1.18774e-014 -3.97569e-015
lhumerus 33.7679 -4.23503 73.6121
lradius 37.7572
lwrist 28.6005
lhand -20.7903 18.0028
lfingers 7.12502
lthumb 5.57682 47.9094
rfemur 20.9991 6.2522 31.7223
rtibia 1.21881
rfoot -5.44317 -1.69439
rtoes -3.79899
lfemur -44.8449 -2.87581 -7.90154
ltibia 22.9474
lfoot -6.78283 9.09892
ltoes -15.6478
121
root 16.0677 18.333 3.16931 0.498913 -0.14859 -5.80702
lowerback 2.11376 1.33102 6.88719
upperback 0.481328 1.94472 2.92226
thorax -0.562918 0.963466 -0.893845
lowerneck -8.11675 -3.17634 -5.3791
upperneck 13.3496 -3.61752 0.391048
head 5.47204 -2.00486 0.742159
rclavicle 1.66482e-015 -2.18663e-014
rhumerus -57.9949 -44.523 -43.9576
rradius 10.9749
rwrist 33.024
rhand -16.8015 31.2304
rfingers 7.12502
rthumb 9.42685 1.46124
lclavicle 1.66482e-015 -2.18663e-014
lhumerus 32.8715 -4.51891 73.7461
lradius 37.9865
lwrist 28.4038
lhand -20.2635 17.799
lfingers 7.12502
lthumb 6.0854 47.6916
rfemur 21.0615 6.54438 31.7582
rtibia 2.08829
rfoot -5.70221 -1.4964
rtoes -5.25732
lfemur -44.3983 -2.74256 -7.8092
ltibia 23.4319
lfoot -6.36688 8.82742
ltoes -15.1987
122
root 16.0931 18.3196 3.354 0.581614 -0.764032 -5.83039
lowerback 2.05344 1.5591 6.87963
upperback 0.361783 2.24895 2.83715
thorax -0.629372 1.11098 -0.983269
lowerneck -8.18988 -3.23492 -5.3867
upperneck 13.6285 -3.69766 0.442655
head 5.57514 -2.04426 0.750454
rclavicle -5.08143e-015 -1.74931e-014
rhumerus -58.3557 -45.5597 -43.2234
rradius 10.8782
rwrist 33.3256
rhand -16.9273 31.6627
rfingers 7.12502
rthumb 9.30551 1.88803
lclavicle -5.08143e-015 -1.74931e-014
lhumerus 32.0514 -4.79891 73.8902
lradius 38.3231
lwrist 28.1224
lhand -19.8925 18.0775
lfingers 7.12502
lthumb 6.44361 47.9595
rfemur 20.6611 6.89214 31.6505
rtibia 3.89783
rfoot -6.3089 -1.2432
rtoes -6.74642
lfemur -43.7493 -2.63529 -7.83073
ltibia 23.8666
lfoot -6.00198 8.82791
ltoes -16.052
123
root 16.113 18.3051 3.54659 0.535636 -1.26771 -6.03155
lowerback 1.96114 1.68042 6.95612
upperback 0.370781 2.40184 2.79259
thorax -0.552883 1.18924 -1.07068
lowerneck -8.59495 -3.31708 -5.33948
upperneck 14.0332 -3.79614 0.484433
head 5.77389 -2.091 0.738908
rclavicle -3.30231e-014 -1.86858e-014
rhumerus -57.0913 -45.6567 -44.7832
rradius 11.053
rwrist 32.6501
rhand -16.6707 31.4094
rfingers 7.12502
rthumb 9.55311 1.64599
lclavicle -3.30231e-014 -1.86858e-014
lhumerus 31.2328 -5.20807 73.5785
lradius 38.7721
lwrist 28.318
lhand -20.1113 18.408
lfingers 7.12502
lthumb 6.23239 48.2963
rfemur 20.3697 7.09579 31.7718
rtibia 5.77105
rfoot -6.6193 -0.870608
rtoes -10.1813
lfemur -42.9717 -2.44314 -7.75429
ltibia 24.3017
lfoot -5.48878 8.51867
ltoes -16.9177
124
root 16.1377 18.283 3.73811 0.743721 -1.57784 -6.07322
lowerback 1.58658 1.74863 6.90567
upperback 0.279409 2.46076 2.69675
thorax -0.430798 1.22039 -1.13094
lowerneck -8.5355 -3.34639 -5.36012
upperneck 14.0362 -3.86013 0.638291
head 5.76967 -2.11248 0.78654
rclavicle -3.04886e-014 6.75868e-015
rhumerus -56.2644 -46.0845 -45.6271
rradius 11.1386
rwrist 33.0594
rhand -16.65 31.0659
rfingers 7.12502
rthumb 9.57309 1.3034
lclavicle -3.04886e-014 6.75868e-015
lhumerus 30.3317 -5.62937 73.3628
lradius 39.1185
lwrist 28.6612
lhand -20.3468 18.0859
lfingers 7.12502
lthumb 6.00496 47.9808
rfemur 20.1198 7.16268 31.6952
rtibia 7.10444
rfoot -6.46 -0.50945
rtoes -13.0599
lfemur -42.5057 -2.3922 -7.85805
ltibia 24.834
lfoot -4.9103 8.21205
ltoes -16.8491
125
root 16.1666 18.2627 3.92821 1.15724 -1.90425 -6.01096
lowerback 1.06468 1.88721 6.77983
upperback 0.117776 2.60357 2.57999
thorax -0.294839 1.29255 -1.16692
lowerneck -8.47751 -3.34282 -5.33298
upperneck 14.0183 -3.8877 0.802368
head 5.75715 -2.11275 0.832666
rclavicle -1.08089e-015 1.07344e-014
rhumerus -55.364 -46.3615 -46.5992
rradius 11.2837
rwrist 33.0712
rhand -16.6812 30.4775
rfingers 7.12502
rthumb 9.54291 0.713559
lclavicle -1.08089e-015 1.07344e-014
lhumerus 29.41 -5.99757 73.4995
lradius 39.4059
lwrist 28.6857
lhand -20.1075 17.8117
lfingers 7.12502
lthumb 6.23607 47.6999
rfemur 19.7593 7.29495 31.4473
rtibia 8.22834
rfoot -6.36096 -0.158314
rtoes -13.1899
lfemur -42.1788 -2.22976 -8.18526
ltibia 25.4046
lfoot -4.37843 8.05034
ltoes -18.7948
